<?xml version="1.0"?>
<svg version="1.1" id="圖層_1" xmlns="http://www.w3.org/2000/svg" x="0" y="0" viewBox="0 0 100 100" xml:space="preserve"><path d="M57.889 61.208H42.111a8.528 8.528 0 0 1-8.528-8.528V31.625c0-9.067 7.35-16.417 16.417-16.417 9.067 0 16.417 7.35 16.417 16.417V52.68a8.528 8.528 0 0 1-8.528 8.528z" fill="#fcee21"/><path d="M27.5 79.388c0 2.984 2.52 5.403 5.628 5.403h33.745c3.108 0 5.628-2.419 5.628-5.403V64.921c0-3.103-.686-6.049-1.914-8.713H29.414a20.745 20.745 0 0 0-1.914 8.713v14.467z" fill="#a0c8d7"/><path d="M70.586 56.208H29.414a20.892 20.892 0 0 0-1.348 3.914c.411.191.865.305 1.348.305a3.215 3.215 0 0 0 2.938-1.915 3.215 3.215 0 0 0 2.938 1.915 3.215 3.215 0 0 0 2.938-1.915c.501 1.127 1.626 1.915 2.938 1.915s2.437-.788 2.938-1.915a3.215 3.215 0 0 0 2.938 1.915 3.215 3.215 0 0 0 2.938-1.915c.501 1.127 1.626 1.915 2.938 1.915s2.437-.788 2.938-1.915c.501 1.127 1.626 1.915 2.938 1.915s2.437-.788 2.938-1.915a3.215 3.215 0 0 0 2.938 1.915 3.215 3.215 0 0 0 2.938-1.915 3.215 3.215 0 0 0 2.938 1.915c.497 0 .962-.122 1.383-.323a20.847 20.847 0 0 0-1.343-3.896z" fill="#eef4dc"/><path d="M60.27 45.716A23.131 23.131 0 0 0 50 43.319c-3.704 0-7.189.875-10.27 2.397-4.568 2.257-8.228 5.966-10.315 10.493h41.171c-2.088-4.527-5.748-8.237-10.316-10.493z" fill="#f5e6c8"/><circle cx="50" cy="33.805" r="14.513" fill="#f5e6c8"/><path d="M64.513 33.638c0-6.077-3.739-11.275-9.039-13.437-.009.052-.022.103-.031.156a14.445 14.445 0 0 0-6.926-.988c-.006-.056-.018-.11-.023-.165-7.129.735-12.71 6.633-12.98 13.89 1.309.344 2.676.545 4.093.545 4.982 0 9.43-2.266 12.384-5.819l.069.091c.024-.029.046-.061.07-.091 2.954 3.552 7.402 5.818 12.383 5.818z" fill="#fcee21"/><g><path d="M62.158 22.549l-.098-.057-.266-.333-.103.12-.093-.053-3.091 3.632a22.807 22.807 0 0 1-1.914-1.059c-.908-.566-2.198-1.847-2.863-2.535a6.216 6.216 0 0 1-.75-.945l-1.249-1.927a6.447 6.447 0 0 1-.316-.546l-1.378-2.68-1.373 2.671a6.213 6.213 0 0 1-.327.564l-1.283 1.979a6.197 6.197 0 0 1-.645.833c-.535.581-1.539 1.631-2.241 2.127-.838.593-1.756 1.097-2.601 1.516l-3.091-3.632-.093.053-.103-.12-.266.333-.098.057.018.043-.018.023 2.235 5.402c.161.389.525.619.912.64.222.031.455-.007.666-.129l.009-.005a16.45 16.45 0 0 1 2.43-1.144c.431-.163.868-.316 1.315-.444a16.644 16.644 0 0 1 4.554-.649c1.532.005 3.064.222 4.554.649a16.935 16.935 0 0 1 3.745 1.588l.009.005c.211.122.444.16.666.129a1.04 1.04 0 0 0 .912-.64l2.235-5.402-.018-.023.018-.041z" fill="#a0c8d7"/><path fill="#f8b26a" stroke="#f2f2f2" stroke-width=".41" stroke-miterlimit="10" d="M51.503 22.167l-1.465 2.714-1.466-2.714 1.466-2.714z"/><circle cx="37.964" cy="22.129" r=".676" fill="#fcee21"/><circle cx="62.036" cy="22.129" r=".676" fill="#fcee21"/></g><path d="M62.101 46.733c-3.008 5.186-7.316 8.434-12.101 8.434-4.752 0-9.034-3.203-12.038-8.327" fill="none" stroke="#fff" stroke-width="1.842" stroke-miterlimit="10"/><circle cx="50" cy="55.042" r="2.875" fill="#f73d7e" stroke="#fff" stroke-width="1.5" stroke-miterlimit="10"/><metadata xmlns:d="https://loading.io/stock/"><d:name>princess</d:name><d:tags>queen,roayl,imperial,king,throne,princess,people</d:tags><d:license>pro</d:license><d:slug>ndwyad</d:slug></metadata></svg>