<?xml version="1.0" encoding="utf-8"?><svg xml:space="preserve" viewBox="0 0 100 100" y="0px" x="0px" xmlns:xlink="http://www.w3.org/1999/xlink" xmlns="http://www.w3.org/2000/svg" id="圖層_2" version="1.1" width="200px" height="200px" style="width:100%;height:100%;background-size:initial;background-repeat:initial;background-position-y:initial;background-position-x:initial;background-origin:initial;background-image:initial;background-color:rgb(255, 255, 255);background-clip:initial;background-attachment:initial;animation-play-state:paused" ><g class="ldl-scale" style="transform-origin:50% 50%;transform:rotate(0deg) scale(0.8, 0.8);animation-play-state:paused" ><circle r="19.36" cy="38.95" cx="70.64" stroke-miterlimit="10" stroke-linejoin="round" stroke-linecap="round" stroke-width="3" stroke="#000000" fill="#F7B26A" style="fill:rgb(247, 178, 106);animation-play-state:paused" ></circle>
<g style="animation-play-state:paused" ><ellipse ry="27.51" rx="19.87" cy="40.47" cx="32.94" stroke-miterlimit="10" stroke-linejoin="round" stroke-linecap="round" stroke-width="3" stroke="#000000" fill="#FFFFFF" transform="matrix(0.7983 -0.6023 0.6023 0.7983 -17.7323 28.0019)" style="fill:rgb(255, 255, 255);animation-play-state:paused" ></ellipse>
<ellipse ry="11.72" rx="10.19" cy="34.68" cx="27.93" stroke-miterlimit="10" stroke-linejoin="round" stroke-linecap="round" stroke-width="3" stroke="#000000" fill="#F5E169" transform="matrix(0.7983 -0.6023 0.6023 0.7983 -15.2533 23.8161)" style="fill:rgb(245, 225, 105);animation-play-state:paused" ></ellipse></g>
<path d="M73.83,62.6c0.51-2.48-1.08-4.91-3.56-5.42c-0.08-0.02-0.16-0.01-0.24-0.02c1.21-0.61,2.16-1.73,2.45-3.16 c0.51-2.48-1.08-4.91-3.56-5.42c-0.54-0.11-1.07-0.11-1.58-0.03c0.38-2.4-1.18-4.7-3.59-5.2c-0.59-0.12-1.17-0.12-1.73-0.02 c-0.04-0.64-0.2-1.28-0.52-1.88c-1.19-2.24-3.97-3.08-6.2-1.89c-0.06,0.03-0.1,0.07-0.15,0.1c-0.65-0.88-1.6-1.54-2.75-1.78 c-1.96-0.4-3.87,0.52-4.85,2.14c-1.36-0.21-2.67,0.2-3.65,1.04c-0.61-0.61-1.4-1.06-2.31-1.25c-2.48-0.51-4.91,1.08-5.42,3.56 c-0.04,0.19-0.04,0.38-0.06,0.57c-0.18-0.06-0.35-0.13-0.54-0.17c-2.48-0.51-4.91,1.08-5.42,3.56c-0.25,1.21,0.01,2.4,0.62,3.37 c-1.5,0.5-2.72,1.75-3.06,3.41c-0.41,1.97,0.53,3.88,2.16,4.86c-1.39,0.55-2.49,1.76-2.81,3.33c-0.48,2.32,0.9,4.58,3.12,5.28 c-0.24,2.31,1.29,4.48,3.61,4.96c1.42,0.29,2.81-0.12,3.84-0.98l-2,9.68l15.97,3.3l1.6-7.74c0.62,0.63,1.41,1.08,2.34,1.27 c1.98,0.41,3.91-0.54,4.87-2.19c0.24,0.09,0.48,0.18,0.73,0.23c2.48,0.51,4.91-1.08,5.42-3.56c0.04-0.19,0.04-0.38,0.06-0.57 c0.18,0.06,0.35,0.13,0.54,0.17c2.48,0.51,4.91-1.08,5.42-3.56c0.24-1.16,0.01-2.29-0.55-3.23C72.93,64.7,73.59,63.75,73.83,62.6z" stroke-miterlimit="10" stroke-linejoin="round" stroke-linecap="round" stroke-width="3" stroke="#000000" fill="#ACBD81" style="fill:rgb(172, 189, 129);animation-play-state:paused" ></path>
<metadata xmlns:d="https://loading.io/stock/" style="animation-play-state:paused" ><d:name style="animation-play-state:paused" >kitchenware</d:name>


<d:tags style="animation-play-state:paused" >kitchenware,cooking,culinary,vegetable,broccoli,egg,carrot,healthy</d:tags>


<d:license style="animation-play-state:paused" >by</d:license>


<d:slug style="animation-play-state:paused" >x38rnv</d:slug></metadata></g><!-- generated by https://loading.io/ --></svg>