<?xml version="1.0" encoding="utf-8"?><svg viewBox="0 0 100 100" xmlns="http://www.w3.org/2000/svg" width="200px" height="200px" xmlns:xlink="http://www.w3.org/1999/xlink" style="width:100%;height:100%;background-size:initial;background-repeat:initial;background-position-y:initial;background-position-x:initial;background-origin:initial;background-image:initial;background-color:rgb(255, 255, 255);background-clip:initial;background-attachment:initial;animation-play-state:paused" ><g class="ldl-scale" style="transform-origin:50% 50%;transform:rotate(0deg) scale(0.8, 0.8);animation-play-state:paused" ><path fill="#849b87" d="M32.151 30.334c3.004-1.404 5.09-4.444 5.09-7.978a8.811 8.811 0 0 0-17.622 0c0 3.535 2.086 6.575 5.09 7.978C16.324 32.06 10 39.498 10 48.386v5.381a3.23 3.23 0 0 0 6.458 0v-5.381c0-2.799.973-5.372 2.589-7.413v21.854h.035v19.627a4.002 4.002 0 0 0 8.004 0V62.827h2.69v19.627a4.002 4.002 0 0 0 8.004 0V62.827h.035V40.973a11.902 11.902 0 0 1 2.589 7.413v5.381a3.23 3.23 0 0 0 6.457 0v-5.381c-.001-8.888-6.325-16.326-14.71-18.052z" style="fill:rgb(132, 155, 135);animation-play-state:paused" ></path>
<path fill="#c33737" d="M75.291 30.334c3.004-1.404 5.09-4.444 5.09-7.978a8.811 8.811 0 0 0-17.622 0c0 3.535 2.086 6.575 5.09 7.978-8.385 1.726-14.709 9.164-14.709 18.052v5.381a3.23 3.23 0 0 0 6.458 0v-5.381c0-2.82.986-5.411 2.623-7.459v6.921l-6.036 23.811h6.036v10.796a4.002 4.002 0 0 0 8.004 0V71.658h2.69v10.796a4.002 4.002 0 0 0 8.004 0V71.658h6.036l-6.036-23.811v-6.921a11.909 11.909 0 0 1 2.623 7.459v5.381a3.23 3.23 0 0 0 6.457 0v-5.381C90 39.498 83.676 32.06 75.291 30.334z" style="fill:rgb(195, 55, 55);animation-play-state:paused" ></path>
<metadata xmlns:d="https://loading.io/stock/" style="animation-play-state:paused" ><d:name style="animation-play-state:paused" >man</d:name>


<d:tags style="animation-play-state:paused" >man,woman,toilet,restroom,gender,sex,marriage,couple,family</d:tags>


<d:license style="animation-play-state:paused" >by</d:license>


<d:slug style="animation-play-state:paused" >52uju</d:slug></metadata></g><!-- generated by https://loading.io/ --></svg>