<?xml version="1.0" encoding="utf-8"?><svg xml:space="preserve" viewBox="0 0 100 100" y="0" x="0" xmlns="http://www.w3.org/2000/svg" id="圖層_1" version="1.1" width="200px" height="200px" xmlns:xlink="http://www.w3.org/1999/xlink" style="width:100%;height:100%;background-size:initial;background-repeat:initial;background-position-y:initial;background-position-x:initial;background-origin:initial;background-color:initial;background-clip:initial;background-attachment:initial;animation-play-state:paused" ><g class="ldl-scale" style="transform-origin:50% 50%;transform:rotate(0deg) scale(0.8, 0.8);animation-play-state:paused" ><path stroke="#333" fill="#e15b64" stroke-miterlimit="10" stroke-linejoin="round" stroke-linecap="round" stroke-width="3.5" d="M87.4 37.1c0-.6 0-1.1-.1-1.7-.8-9.4-8.5-17-17.9-17.9-.4 0-.9-.1-1.3-.1-6.3-.2-12 2.6-15.8 7.1-.9 1.1-1.7 2.3-2.4 3.6-.7-1.3-1.5-2.5-2.4-3.6-3.7-4.5-9.4-7.3-15.8-7.1-.4 0-.9 0-1.3.1-9.4.8-17 8.5-17.9 17.9 0 .5-.1 1.1-.1 1.6 0 3.4.8 6.7 2.3 9.5C18 54 24.1 61.3 28.6 66.3c3.2 3.5 6.7 6.7 10.5 9.6 2.2 1.7 7.5 6.5 10.6 6.4h.2c3.1.1 8.3-4.7 10.6-6.4 3.8-2.9 7.3-6.1 10.5-9.6 4.5-5 10.6-12.3 13.9-19.8 1.6-2.7 2.5-5.9 2.5-9.4z" style="stroke:rgb(51, 51, 51);fill:rgb(225, 91, 100);animation-play-state:paused" ></path>
<g style="animation-play-state:paused" ><path stroke-miterlimit="10" stroke-width="3.5" stroke="#333" fill="#fff" d="M57.3 68.7c-1.7 0-3.3-.9-3.9-2.4l-6.7-14s0-.1-.1-.1l-5-11.9-5.3 11.9c-.5 1.1-1.6 1.8-2.8 1.8H13.1c-1.7 0-3.1-1.4-3.1-3.1s1.4-3.1 3.1-3.1h18.4l6.2-14c.7-1.5 2.2-2.4 3.9-2.4 1.7 0 3.3.9 3.9 2.4l6.7 15.9 5.1 10.6 5.4-10.7c.5-1 1.6-1.7 2.8-1.7H87c1.7 0 3.1 1.4 3.1 3.1s-1.5 3-3.2 3H67.4l-6.2 12.4c-.7 1.3-2.2 2.3-3.9 2.3z" style="stroke:rgb(51, 51, 51);fill:rgb(255, 255, 255);animation-play-state:paused" ></path></g>
<metadata xmlns:d="https://loading.io/stock/" style="animation-play-state:paused" ><d:name style="animation-play-state:paused" >pulse</d:name>
<d:tags style="animation-play-state:paused" >pulse,wave,heartbeat,signal,voltage,current,cardiac,ecg,healthcheck</d:tags>
<d:license style="animation-play-state:paused" >by</d:license>
<d:slug style="animation-play-state:paused" >o76id4</d:slug></metadata></g><!-- generated by https://loading.io/ --></svg>