<?xml version="1.0" encoding="utf-8"?><svg xml:space="preserve" viewBox="0 0 100 100" y="0" x="0" xmlns="http://www.w3.org/2000/svg" id="圖層_1" version="1.1" width="200px" height="200px" xmlns:xlink="http://www.w3.org/1999/xlink" style="width:100%;height:100%;background-size:initial;background-repeat:initial;background-position-y:initial;background-position-x:initial;background-origin:initial;background-color:initial;background-clip:initial;background-attachment:initial;animation-play-state:paused" ><g class="ldl-scale" style="transform-origin:50% 50%;transform:rotate(0deg) scale(1, 1);animation-play-state:paused" ><path stroke-miterlimit="10" stroke-linejoin="round" stroke-linecap="round" stroke-width="3.5" stroke="#333" fill="#c33737" d="M59 66c-.4.8-2 .8-2.4 0l-7.2-15.1-7.2-17c-.4-.8-2-.8-2.4 0l-7.6 17H14.7c3.6 6.4 8.7 12.3 12.6 16.6 3.4 3.8 7.2 7.2 11.2 10.3 2.4 1.8 8 6.9 11.3 6.9h.2c3.3.1 8.9-5 11.3-6.9 4-3.1 7.8-6.6 11.2-10.3 3.9-4.3 9-10.3 12.6-16.6H66.5L59 66z" style="stroke:rgb(51, 51, 51);fill:rgb(195, 55, 55);animation-play-state:paused" ></path>
<path stroke="#333" fill="#e15b64" stroke-miterlimit="10" stroke-linejoin="round" stroke-linecap="round" stroke-width="3.5" d="M90 36.2c0-.6 0-1.2-.1-1.8-.9-10-9-18.2-19.1-19.1-.5 0-.9-.1-1.4-.1-6.8-.2-12.9 2.8-16.9 7.6-1 1.2-1.8 2.5-2.5 3.8-.7-1.4-1.6-2.7-2.5-3.8-4-4.8-10.1-7.8-16.9-7.6-.5 0-.9 0-1.4.1-10.1.9-18.2 9.1-19.1 19.1-.1.6-.1 1.2-.1 1.8 0 3.7.9 7.2 2.5 10.2.7 1.5 1.4 3 2.3 4.5h17.5l7.6-17c.4-.8 2-.8 2.4 0l7.2 17L56.6 66c.4.8 2 .8 2.4 0l7.6-15.1h18.6c.9-1.5 1.6-3 2.3-4.5 1.6-3 2.5-6.5 2.5-10.2z" style="stroke:rgb(51, 51, 51);fill:rgb(225, 91, 100);animation-play-state:paused" ></path>
<g style="animation-play-state:paused" ><path stroke-miterlimit="10" stroke-width="3.5" stroke="#333" fill="#fff" d="M57.3 68.7c-1.7 0-3.3-.9-3.9-2.4l-6.7-14s0-.1-.1-.1l-5-11.9-5.3 11.9c-.5 1.1-1.6 1.8-2.8 1.8H13.1c-1.7 0-3.1-1.4-3.1-3.1s1.4-3.1 3.1-3.1h18.4l6.2-14c.7-1.5 2.2-2.4 3.9-2.4 1.7 0 3.3.9 3.9 2.4l6.7 15.9 5.1 10.6 5.4-10.7c.5-1 1.6-1.7 2.8-1.7H87c1.7 0 3.1 1.4 3.1 3.1s-1.5 3-3.2 3H67.4l-6.2 12.4c-.7 1.3-2.2 2.3-3.9 2.3z" style="stroke:rgb(51, 51, 51);fill:rgb(255, 255, 255);animation-play-state:paused" ></path></g>
<metadata xmlns:d="https://loading.io/stock/" style="animation-play-state:paused" ><d:name style="animation-play-state:paused" >pulse</d:name>
<d:tags style="animation-play-state:paused" >pulse,wave,heartbeat,signal,voltage,current,cardiac,ecg,healthcheck</d:tags>
<d:license style="animation-play-state:paused" >by</d:license>
<d:slug style="animation-play-state:paused" >ngmy0y</d:slug></metadata></g><!-- generated by https://loading.io/ --></svg>