<?xml version="1.0"?><svg version="1.1" id="圖層_1" xmlns="http://www.w3.org/2000/svg" x="0" y="0" viewBox="0 0 100 100" xml:space="preserve"><path d="M53.558 74.185l-3.341 2.07-22.593-36.47a1.965 1.965 0 1 1 3.342-2.07l22.592 36.47z" fill="#353035"/><path d="M36.769 43.424l-6.619 4.101a1.67 1.67 0 0 1-2.126-.309l-.818-.92a.722.722 0 0 1 .159-1.094l8.566-5.307a.722.722 0 0 1 1.05.345l.459 1.142a1.67 1.67 0 0 1-.671 2.042z" fill="#f47e60"/><path d="M60.748 43.674a23.131 23.131 0 0 0-10.27-2.397c-3.704 0-7.189.875-10.27 2.397-7.257 3.585-12.23 10.831-12.23 19.206v14.467c0 2.984 2.52 5.403 5.628 5.403H67.35c3.108 0 5.628-2.419 5.628-5.403V62.88c0-8.375-4.974-15.621-12.23-19.206z" fill="#333"/><path d="M51.43 61.282l9.318-17.608a23.128 23.128 0 0 0-10.27-2.397c-3.704 0-7.189.875-10.27 2.397l9.318 17.608c.364.975 1.539.975 1.904 0z" fill="#666"/><circle cx="50.478" cy="31.763" r="14.25" fill="#c7b299"/><path d="M63.356 34.516a5.143 5.143 0 0 1-.488.858 1.49 1.49 0 0 0-.133 1.452l3.622 8.2a14.57 14.57 0 0 0 2.125-4.907l-4.124-5.738c-.268-.371-.816-.283-1.002.135z" fill="#c33737"/><path d="M50.478 17.25c-8.016 0-14.513 6.498-14.513 14.513s6.498 14.513 14.513 14.513 14.513-6.498 14.513-14.513S58.493 17.25 50.478 17.25zm6.687 16.625H43.79a3.5 3.5 0 1 1 0-7h13.375a3.5 3.5 0 1 1 0 7z" fill="#333"/><path d="M43.79 33.875h13.375a3.5 3.5 0 1 0 0-7H43.79a3.5 3.5 0 1 0 0 7z" fill="none"/><path d="M60.189 21H40.766a14.539 14.539 0 0 0-3.245 4.25h25.913A14.539 14.539 0 0 0 60.189 21z" fill="#c33737"/><metadata xmlns:d="https://loading.io/stock/">
<d:name>ninja</d:name>
<d:tags>samurai,japan,killer,hitman,assassin,ninja,people</d:tags>
<d:license>by</d:license>
<d:slug>iyxufo</d:slug>
</metadata></svg>