<?xml version="1.0" encoding="utf-8"?><svg xml:space="preserve" viewBox="0 0 100 100" y="0" x="0" xmlns="http://www.w3.org/2000/svg" id="圖層_1" version="1.1" width="200px" height="200px" xmlns:xlink="http://www.w3.org/1999/xlink" style="width:100%;height:100%;background-size:initial;background-repeat:initial;background-position-y:initial;background-position-x:initial;background-origin:initial;background-image:initial;background-color:rgb(255, 255, 255);background-clip:initial;background-attachment:initial;animation-play-state:paused" ><g class="ldl-scale" style="transform-origin:50% 50%;transform:rotate(0deg) scale(0.8, 0.8);animation-play-state:paused" ><path stroke-miterlimit="10" stroke-linecap="round" stroke-width="3.321" stroke="#333" fill="#fff" d="M71.57 91H28.43a4.549 4.549 0 0 1-4.549-4.549V23.315a4.549 4.549 0 0 1 4.549-4.549h43.14a4.549 4.549 0 0 1 4.549 4.549V86.45A4.548 4.548 0 0 1 71.57 91z" style="stroke:rgb(51, 51, 51);fill:rgb(255, 255, 255);animation-play-state:paused" ></path>
<path fill="#e0e0e0" d="M59.548 11.847H56.59C56.195 8.558 53.393 6 50 6s-6.195 2.558-6.59 5.847h-2.958a2.352 2.352 0 0 0-2.352 2.352v9.825h23.801v-9.825a2.353 2.353 0 0 0-2.353-2.352zM50 9.321a3.32 3.32 0 0 1 3.214 2.525c.064.256.107.52.107.796 0 1.831-1.489 3.321-3.321 3.321s-3.321-1.49-3.321-3.321c0-.276.044-.539.107-.796A3.32 3.32 0 0 1 50 9.321z" style="fill:rgb(224, 224, 224);animation-play-state:paused" ></path>
<path fill="#e15b64" d="M59.231 46.126l-2.469-6.052a1.493 1.493 0 0 0-1.501-.932 1.502 1.502 0 0 0-1.352 1.137l-2.644 10.635-3.526-16.833a1.502 1.502 0 0 0-1.428-1.195c-.687.006-1.313.448-1.494 1.101l-3.371 12.139H28.851l.481.66a42.092 42.092 0 0 0 1.724 2.2l.125.149H42.59a1.51 1.51 0 0 0 1.449-1.102l2.023-7.284 3.607 17.212c.144.691.738 1.183 1.472 1.196a1.5 1.5 0 0 0 1.459-1.142l3.118-12.538 1.111 2.721c.231.569.778.937 1.392.937H68.78l.125-.145a40.77 40.77 0 0 0 1.761-2.201l.492-.662H59.231z" style="fill:rgb(225, 91, 100);animation-play-state:paused" ></path>
<path d="M49.446 66.501h19.789" stroke-miterlimit="10" stroke-width="3.321" stroke="#333" fill="none" style="stroke:rgb(51, 51, 51);animation-play-state:paused" ></path>
<path d="M56.504 73.973h12.731" stroke-miterlimit="10" stroke-width="3.321" stroke="#333" fill="none" style="stroke:rgb(51, 51, 51);animation-play-state:paused" ></path>
<path d="M56.504 80.616h12.731" stroke-miterlimit="10" stroke-width="3.321" stroke="#333" fill="none" style="stroke:rgb(51, 51, 51);animation-play-state:paused" ></path>
<path d="M30.569 73.539l4.885 4.885 7.569-7.57" stroke-miterlimit="10" stroke-width="3.321" stroke="#849b87" fill="none" style="stroke:rgb(132, 155, 135);animation-play-state:paused" ></path>
<metadata xmlns:d="https://loading.io/stock/" style="animation-play-state:paused" ><d:name style="animation-play-state:paused" >healthcheck</d:name>
<d:tags style="animation-play-state:paused" >healthcheck,test,exam,evaluation,survey,measure,report</d:tags>
<d:license style="animation-play-state:paused" >by</d:license>
<d:slug style="animation-play-state:paused" >x5fp09</d:slug></metadata></g><!-- generated by https://loading.io/ --></svg>