<?xml version="1.0" encoding="utf-8"?><svg xml:space="preserve" viewBox="0 0 100 100" y="0" x="0" xmlns="http://www.w3.org/2000/svg" id="圖層_1" version="1.1" width="200px" height="200px" xmlns:xlink="http://www.w3.org/1999/xlink" style="width:100%;height:100%;background-size:initial;background-repeat:initial;background-position-y:initial;background-position-x:initial;background-origin:initial;background-image:initial;background-color:rgb(255, 255, 255);background-clip:initial;background-attachment:initial;animation-play-state:paused" ><g class="ldl-scale" style="transform-origin:50% 50%;transform:rotate(0deg) scale(0.8, 0.8);animation-play-state:paused" ><path fill="#f5e169" d="M82 92.5H18c-5.8 0-10.5-4.7-10.5-10.5V18c0-5.8 4.7-10.5 10.5-10.5h64c5.8 0 10.5 4.7 10.5 10.5v64c0 5.8-4.7 10.5-10.5 10.5z" style="fill:rgb(245, 225, 105);animation-play-state:paused" ></path>
<path stroke-miterlimit="10" stroke-width="2" stroke="#e0e0e0" fill="#fff" d="M50 16.5c-7.5 0-14.7 2.1-21.2 6.2-1.6 1-2.2 3.1-1.5 4.9l4.9 11.2c.9 2.1 3.5 2.9 5.5 1.9 3.8-2 8-3.1 12.3-3.1s8.4 1.1 12.3 3.1c2.1 1.1 4.6.3 5.5-1.9l4.9-11.2c.8-1.8.2-3.8-1.5-4.9-6.5-4.1-13.7-6.2-21.2-6.2z" style="stroke:rgb(224, 224, 224);fill:rgb(255, 255, 255);animation-play-state:paused" ></path>
<g style="animation-play-state:paused" ><path d="M50 21.3v11.9" stroke-miterlimit="10" stroke-width="2" stroke-linecap="round" stroke="#e15b64" fill="none" style="stroke:rgb(225, 91, 100);animation-play-state:paused" ></path>
<path d="M55.1 28.8l-.6 4.8" stroke-miterlimit="10" stroke-linecap="round" stroke-width="2" stroke="#333" fill="none" style="stroke:rgb(51, 51, 51);animation-play-state:paused" ></path>
<path d="M60 30.5l-1.2 4" stroke-miterlimit="10" stroke-linecap="round" stroke-width="2" stroke="#333" fill="none" style="stroke:rgb(51, 51, 51);animation-play-state:paused" ></path>
<path d="M64.7 32.3L63 36" stroke-miterlimit="10" stroke-linecap="round" stroke-width="2" stroke="#333" fill="none" style="stroke:rgb(51, 51, 51);animation-play-state:paused" ></path>
<path d="M44.9 28.8l.6 4.8" stroke-miterlimit="10" stroke-linecap="round" stroke-width="2" stroke="#333" fill="none" style="stroke:rgb(51, 51, 51);animation-play-state:paused" ></path>
<path d="M40.1 30.6l1.1 3.9" stroke-miterlimit="10" stroke-linecap="round" stroke-width="2" stroke="#333" fill="none" style="stroke:rgb(51, 51, 51);animation-play-state:paused" ></path>
<path d="M35.8 33.2L37 36" stroke-miterlimit="10" stroke-linecap="round" stroke-width="2" stroke="#333" fill="none" style="stroke:rgb(51, 51, 51);animation-play-state:paused" ></path></g>
<metadata xmlns:d="https://loading.io/stock/" style="animation-play-state:paused" ><d:name style="animation-play-state:paused" >weight meter</d:name>
<d:tags style="animation-play-state:paused" >weight meter,heavy,weighing scale,body,health check</d:tags>
<d:license style="animation-play-state:paused" >by</d:license>
<d:slug style="animation-play-state:paused" >rr9rj8</d:slug></metadata></g><!-- generated by https://loading.io/ --></svg>